<svg xmlns="http://www.w3.org/2000/svg" width="512" height="512"><rect id="backgroundrect" width="100%" height="100%" x="0" y="0" fill="none" stroke="none"/><g class="currentLayer" style=""><title>Layer 1</title><path d="M239.208 343.937c-17.78 10.103-38.342 15.876-60.255 15.876-21.909 0-42.467-5.771-60.246-15.87C71.544 358.331 42.643 406 32 448h293.912c-10.639-42-39.537-89.683-86.704-104.063zM178.953 120.035c-58.479 0-105.886 47.394-105.886 105.858 0 58.464 47.407 105.857 105.886 105.857s105.886-47.394 105.886-105.857c0-58.464-47.408-105.858-105.886-105.858zm0 186.488c-33.671 0-62.445-22.513-73.997-50.523H252.95c-11.554 28.011-40.326 50.523-73.997 50.523z" id="svg_1" class=""/><path d="M239.20799255371094,343.93701171875 c-17.780000686645508,10.102999687194824 -38.34199905395508,15.87600040435791 -60.255001068115234,15.87600040435791 c-21.909000396728516,0 -42.46699905395508,-5.770999908447266 -60.24599838256836,-15.869999885559082 C71.54399871826172,358.33099365234375 42.643001556396484,406 32,448 h293.9119873046875 c-10.638999938964844,-42 -39.5369987487793,-89.68299865722656 -86.7040023803711,-104.06300354003906 zM178.9530029296875,120.03500366210938 c-58.479000091552734,0 -105.88600158691406,47.39400100708008 -105.88600158691406,105.85800170898438 c0,58.4640007019043 47.40700149536133,105.85700225830078 105.88600158691406,105.85700225830078 s105.88600158691406,-47.39400100708008 105.88600158691406,-105.85700225830078 c0,-58.4640007019043 -47.40800094604492,-105.85800170898438 -105.88600158691406,-105.85800170898438 zm0,186.48800659179688 c-33.67100143432617,0 -62.44499969482422,-22.51300048828125 -73.99700164794922,-50.52299880981445 H252.9499969482422 c-11.553999900817871,28.01099967956543 -40.32600021362305,50.52299880981445 -73.99700164794922,50.52299880981445 z" class="" id="svg_4"/><path d="M239.20799255371094,343.93701171875 c-17.780000686645508,10.102999687194824 -38.34199905395508,15.87600040435791 -60.255001068115234,15.87600040435791 c-21.909000396728516,0 -42.46699905395508,-5.770999908447266 -60.24599838256836,-15.869999885559082 C71.54399871826172,358.33099365234375 42.643001556396484,406 32,448 h293.9119873046875 c-10.638999938964844,-42 -39.5369987487793,-89.68299865722656 -86.7040023803711,-104.06300354003906 zM178.9530029296875,120.03500366210938 c-58.479000091552734,0 -105.88600158691406,47.39400100708008 -105.88600158691406,105.85800170898438 c0,58.4640007019043 47.40700149536133,105.85700225830078 105.88600158691406,105.85700225830078 s105.88600158691406,-47.39400100708008 105.88600158691406,-105.85700225830078 c0,-58.4640007019043 -47.40800094604492,-105.85800170898438 -105.88600158691406,-105.85800170898438 zm0,186.48800659179688 c-33.67100143432617,0 -62.44499969482422,-22.51300048828125 -73.99700164794922,-50.52299880981445 H252.9499969482422 c-11.553999900817871,28.01099967956543 -40.32600021362305,50.52299880981445 -73.99700164794922,50.52299880981445 z" class="selected" id="svg_7" fill="#ffffff" fill-opacity="1"/><g id="svg_2" class=""><path d="M322.602 384H480c-10.638-42-39.537-81.691-86.703-96.072-17.781 10.104-38.343 15.873-60.256 15.873-14.823 0-29.024-2.654-42.168-7.49-7.445 12.47-16.927 25.592-27.974 34.906C289.245 341.354 309.146 364 322.602 384zM306.545 200h100.493c-11.554 28-40.327 50.293-73.997 50.293-8.875 0-17.404-1.692-25.375-4.51a128.411 128.411 0 0 1-6.52 25.118c10.066 3.174 20.779 4.862 31.895 4.862 58.479 0 105.886-47.41 105.886-105.872 0-58.465-47.407-105.866-105.886-105.866-37.49 0-70.427 19.703-89.243 49.09C275.607 131.383 298.961 163 306.545 200z" id="svg_3"/></g><g class="" id="svg_5" fill="#ffffff" fill-opacity="1"><path d="M322.602 384H480c-10.638-42-39.537-81.691-86.703-96.072-17.781 10.104-38.343 15.873-60.256 15.873-14.823 0-29.024-2.654-42.168-7.49-7.445 12.47-16.927 25.592-27.974 34.906C289.245 341.354 309.146 364 322.602 384zM306.545 200h100.493c-11.554 28-40.327 50.293-73.997 50.293-8.875 0-17.404-1.692-25.375-4.51a128.411 128.411 0 0 1-6.52 25.118c10.066 3.174 20.779 4.862 31.895 4.862 58.479 0 105.886-47.41 105.886-105.872 0-58.465-47.407-105.866-105.886-105.866-37.49 0-70.427 19.703-89.243 49.09C275.607 131.383 298.961 163 306.545 200z" id="svg_6" fill="#ffffff" fill-opacity="1"/></g><g class="" fill="#ffffff" fill-opacity="1" id="svg_8"><path d="M322.602 384H480c-10.638-42-39.537-81.691-86.703-96.072-17.781 10.104-38.343 15.873-60.256 15.873-14.823 0-29.024-2.654-42.168-7.49-7.445 12.47-16.927 25.592-27.974 34.906C289.245 341.354 309.146 364 322.602 384zM306.545 200h100.493c-11.554 28-40.327 50.293-73.997 50.293-8.875 0-17.404-1.692-25.375-4.51a128.411 128.411 0 0 1-6.52 25.118c10.066 3.174 20.779 4.862 31.895 4.862 58.479 0 105.886-47.41 105.886-105.872 0-58.465-47.407-105.866-105.886-105.866-37.49 0-70.427 19.703-89.243 49.09C275.607 131.383 298.961 163 306.545 200z" id="svg_9" fill="#ffffff" fill-opacity="1"/></g></g></svg>