<svg xmlns="http://www.w3.org/2000/svg" width="512" height="512" style=""><rect id="backgroundrect" width="100%" height="100%" x="0" y="0" fill="none" stroke="none"/><g class="currentLayer" style=""><title>Layer 1</title><path d="M384,111.25373136997223 V83.65373289585114 c0,-29 -24.5,-52.400001525878906 -54.79999923706055,-52.400001525878906 H182.89999389648438 C152.5,31.25373136997223 128,54.653732895851135 128,83.65373289585114 V111.25373136997223 h152 v37 H128 v43 h152 v37 H128 v43 h152 v37 H128 v41.79999923706055 c0,29 24.5,52.20000076293945 54.900001525878906,52.20000076293945 H213 v77 h86 v-77 h30.200000762939453 c30.299999237060547,0 54.79999923706055,-23.200000762939453 54.79999923706055,-52.20000076293945 V308.25373136997223 h-56 v-37 h56 v-43 h-56 v-37 h56 v-43 h-56 v-37 h56 z" id="svg_1" class="selected" fill="#ffffff" fill-opacity="1"/></g></svg>